<svg xmlns="http://www.w3.org/2000/svg" width="68.088" height="61.918" viewBox="0 0 68.088 61.918">
  <defs>
    <style>
      .cls-1 {
        fill: #fff;
        stroke: #fff;
      }
    </style>
  </defs>
  <g id="Group_2804" data-name="Group 2804" transform="translate(0.5 0.501)">
    <path id="Path_129" data-name="Path 129" class="cls-1" d="M580.682,62.062a10.284,10.284,0,1,1,10.294-10.284,10.3,10.3,0,0,1-10.294,10.284m0-19.165a8.88,8.88,0,1,0,8.891,8.88,8.9,8.9,0,0,0-8.891-8.88" transform="translate(-531.643 -30.55)"/>
    <path id="Path_130" data-name="Path 130" class="cls-1" d="M543.465,131.743h0a.7.7,0,0,1-.7-.7A18.039,18.039,0,0,1,560.8,113.012h.021a18.039,18.039,0,0,1,18.038,18.029.7.7,0,0,1-.7.7h0a.7.7,0,0,1-.7-.7,16.636,16.636,0,0,0-16.635-16.626H560.8a16.636,16.636,0,0,0-16.636,16.626.7.7,0,0,1-.7.7" transform="translate(-511.773 -81.991)"/>
    <path id="Path_131" data-name="Path 131" class="cls-1" d="M470.3,101.835A10.284,10.284,0,1,1,480.6,91.551,10.3,10.3,0,0,1,470.3,101.835m0-19.165a8.88,8.88,0,1,0,8.891,8.88,8.9,8.9,0,0,0-8.891-8.88" transform="translate(-452.249 -59.158)"/>
    <path id="Path_132" data-name="Path 132" class="cls-1" d="M433.072,171.515h0a.7.7,0,0,1-.7-.7,18.06,18.06,0,0,1,18.039-18.029h.02a18.038,18.038,0,0,1,18.038,18.029h-1.4a16.634,16.634,0,0,0-16.634-16.626h-.019a16.635,16.635,0,0,0-16.637,16.626.7.7,0,0,1-.7.7" transform="translate(-432.37 -110.598)"/>
    <path id="Path_133" data-name="Path 133" class="cls-1" d="M510.434,16.681a.7.7,0,0,1-.7-.782l.482-4.214-3.2-2.785a.7.7,0,0,1,.321-1.218l4.161-.845,1.661-3.9a.7.7,0,0,1,.606-.426.711.711,0,0,1,.65.355l2.09,3.692,4.229.373a.7.7,0,0,1,.455,1.173l-2.869,3.126.951,4.132a.7.7,0,0,1-.975.8l-3.864-1.76-3.639,2.182a.7.7,0,0,1-.361.1m-1.422-7.905,2.407,2.093a.7.7,0,0,1,.237.609l-.362,3.168,2.736-1.641a.7.7,0,0,1,.652-.036l2.906,1.323-.715-3.107a.7.7,0,0,1,.167-.632l2.156-2.35-3.179-.281a.7.7,0,0,1-.549-.353l-1.572-2.777-1.25,2.935a.7.7,0,0,1-.506.413Z" transform="translate(-485.888 -2.509)"/>
  </g>
</svg>
