<svg xmlns="http://www.w3.org/2000/svg" xmlns:xlink="http://www.w3.org/1999/xlink" width="42.887" height="48.999" viewBox="0 0 42.887 48.999">
  <defs>
    <style>
      .cls-1 {
        fill: none;
      }

      .cls-2 {
        clip-path: url(#clip-path);
      }

      .cls-3 {
        fill: #fff;
      }
    </style>
    <clipPath id="clip-path">
      <rect id="Rectangle_144" data-name="Rectangle 144" class="cls-1" width="42.887" height="48.999"/>
    </clipPath>
  </defs>
  <g id="Group_2465" data-name="Group 2465" class="cls-2">
    <path id="Path_29666" data-name="Path 29666" class="cls-3" d="M33.831,42.44A1.181,1.181,0,0,1,33,42.095l-9.353-9.353a1.18,1.18,0,0,1,0-1.669l19.1-19.1a1.215,1.215,0,0,1,1.669,0l9.353,9.353a1.18,1.18,0,0,1,0,1.669l-19.1,19.1a1.181,1.181,0,0,1-.834.345M26.147,31.908l7.685,7.685,17.43-17.43-7.685-7.685Z" transform="translate(-15.237 -7.615)"/>
    <path id="Path_29667" data-name="Path 29667" class="cls-3" d="M1.179,86.184A1.18,1.18,0,0,1,.03,84.738L2.757,72.952a1.179,1.179,0,0,1,.315-.569L8.456,67a1.18,1.18,0,0,1,1.669,0l9.353,9.353a1.18,1.18,0,0,1,0,1.669L14.093,83.4a1.177,1.177,0,0,1-.6.322L1.412,86.161a1.209,1.209,0,0,1-.233.023m3.8-12.371L2.741,83.486l9.936-2,4.3-4.3L9.29,69.5Z" transform="translate(0 -43.591)"/>
    <path id="Path_29668" data-name="Path 29668" class="cls-3" d="M88.74,15.825a1.177,1.177,0,0,1-.834-.345L78.553,6.127a1.18,1.18,0,0,1,0-1.668l3-3a5,5,0,0,1,7.066,0l3.955,3.955a5,5,0,0,1,0,7.067l-3,3a1.177,1.177,0,0,1-.834.345M81.056,5.293l7.685,7.684L90.9,10.813a2.64,2.64,0,0,0,0-3.73L86.949,3.129a2.64,2.64,0,0,0-3.73,0Z" transform="translate(-51.146 0)"/>
    <path id="Path_29669" data-name="Path 29669" class="cls-3" d="M8.187,118.472a14.822,14.822,0,0,1-6.36-1.528,1.18,1.18,0,0,1,1.01-2.132c5.478,2.594,10.588,1.276,14.778-3.811a12.017,12.017,0,0,1,8.817-4.763,10.259,10.259,0,0,1,7.884,3.443,1.18,1.18,0,0,1-1.734,1.6A7.926,7.926,0,0,0,26.5,108.6a9.583,9.583,0,0,0-7.063,3.9c-3.255,3.953-7.119,5.972-11.25,5.972" transform="translate(-0.753 -69.474)"/>
  </g>
</svg>
