<svg id="Group_2601" data-name="Group 2601" xmlns="http://www.w3.org/2000/svg" xmlns:xlink="http://www.w3.org/1999/xlink" width="57.554" height="40.556" viewBox="0 0 57.554 40.556">
  <defs>
    <style>
      .cls-1 {
        fill: none;
      }

      .cls-2 {
        clip-path: url(#clip-path);
      }

      .cls-3 {
        fill: #fff;
      }
    </style>
    <clipPath id="clip-path">
      <rect id="Rectangle_229" data-name="Rectangle 229" class="cls-1" width="57.554" height="40.556"/>
    </clipPath>
  </defs>
  <g id="Group_2600" data-name="Group 2600" class="cls-2">
    <path id="Path_29781" data-name="Path 29781" class="cls-3" d="M57.357,20.968a11.987,11.987,0,0,0-.628-2.244,1.108,1.108,0,0,0-1.133-.819l-.157.008c-.143.013-.29.019-.479.019-.137,0-.256,0-.388-.006s-.278-.006-.421-.006H54.1l-.012-.233c-.006-.118-.012-.222-.012-.326V14.779a5.7,5.7,0,0,0-5.693-5.65h-.129c-1.95.026-4.025.04-6.529.04l-4.705-.01c-1.586-.01-3.184-.01-4.8-.01H31.71l-.43,2.462H48.3a2.855,2.855,0,0,1,.37,0A3.221,3.221,0,0,1,51.7,15.024V31.7a2.824,2.824,0,0,1,0,.368A3.228,3.228,0,0,1,48.281,35.1h-9.4c-3.937,0-6.38,0-7.471.008a.978.978,0,0,0-.239.034l-.128.036-.06.12c-.28.565-.536,1.128-.805,1.731l-.24.531H41.213v0c3.309,0,5.729,0,7.408-.012h.005a5.366,5.366,0,0,0,5.3-4.479,15.33,15.33,0,0,0,.14-2.493c0-.369,0-.749.016-1.134v-.664h.979c.191,0,.377,0,.587.008a.907.907,0,0,0,.873-.462,6.83,6.83,0,0,0,.632-1.509,14.874,14.874,0,0,0,.2-5.843"/>
    <path id="Path_29782" data-name="Path 29782" class="cls-3" d="M2.4,31.682c-.01-5.493-.01-11.138,0-16.806a2.9,2.9,0,0,1,0-.349,3.183,3.183,0,0,1,3.172-2.989c.064,0,.13,0,.213.006H16l6.967-.006a1.048,1.048,0,0,0,.238-.03l.135-.033.062-.125c.28-.563.538-1.131.811-1.734l.243-.534H5.635a6.589,6.589,0,0,0-.977.074A5.64,5.64,0,0,0,.016,14.88V21.3c0,3.4.008,6.917-.015,10.377a5.861,5.861,0,0,0,1.688,4.175A5.648,5.648,0,0,0,5.706,37.51h.142c2-.026,4.033-.038,6.388-.038l4.222.007c1.5.011,3.046.011,4.693.011h.6l.422-2.457L5.463,35.027A3.209,3.209,0,0,1,2.4,31.682"/>
    <path id="Path_29783" data-name="Path 29783" class="cls-3" d="M41.289,16.163a1.094,1.094,0,0,0-1.094-1.093l-7.109.012a1.093,1.093,0,1,0,0,2.185l5.058-.008L25.981,35.419l.9-12.376a1.091,1.091,0,0,0-1.086-1.1l-4.587-.031L34.74,1.691a1.088,1.088,0,0,0-.3-1.5,1.093,1.093,0,0,0-1.521.286L18.26,22.387a1.09,1.09,0,0,0-.184.6,1.093,1.093,0,0,0,1.086,1.1l5.451.037L23.5,39.381l0,.079a1.094,1.094,0,0,0,1.093,1.093v0a1.094,1.094,0,0,0,.908-.485L41.1,16.77a1.088,1.088,0,0,0,.184-.607"/>
  </g>
</svg>
