<svg xmlns="http://www.w3.org/2000/svg" width="55.828" height="73.007" viewBox="0 0 55.828 73.007">
  <g id="Group_82" data-name="Group 82" transform="translate(0.502 0.5)">
    <path id="Path_124" data-name="Path 124" d="M34.48,72.007c-.064-.08-.129-.16-.194-.24a4.214,4.214,0,0,1-.537-.757c-1.384-2.781-2.775-5.615-4.121-8.356l-1.495-3.043c-.073-.149-.154-.295-.249-.468l-.155-.283-.312-.578-.476.877c-.1.173-.171.311-.24.451L25.229,62.6c-1.344,2.736-2.733,5.565-4.115,8.34a4.733,4.733,0,0,1-.56.806c-.068.085-.136.17-.2.257h-.518c-.068-.1-.141-.209-.213-.312a2.975,2.975,0,0,1-.5-.913c-.542-2.227-1.057-4.5-1.554-6.7q-.3-1.319-.6-2.637a3.137,3.137,0,0,0-.13-.4c-.023-.062-.047-.127-.072-.2l-.129-.374-8.01,3.988-.558.276c-.5.248-1,.5-1.5.754a1.664,1.664,0,0,1-.745.235.772.772,0,0,1-.55-.242c-.313-.3-.323-.608-.036-1.187q2.944-5.958,5.868-11.924L12.7,49.144c.089-.181.176-.364.225-.468l.1-.214-.078-.143c-.254-.467-.5-.923-.752-1.373-.592-1.075-1.15-2.091-1.683-3.129a3.569,3.569,0,0,0-1.861-1.769c-.8-.338-1.607-.728-2.382-1.106q-.341-.166-.682-.331a3.842,3.842,0,0,1-2.419-4.063c.038-.509.067-1.018.1-1.528.034-.613.07-1.247.123-1.867a2.952,2.952,0,0,0-.629-2.074C2.218,30.354,1.7,29.6,1.19,28.864l-.379-.548A3.706,3.706,0,0,1,.8,23.7c.226-.327.457-.65.689-.973.464-.647.943-1.316,1.368-2.007a3.405,3.405,0,0,0,.5-1.685c0-1.02-.076-2.051-.154-3.048L3.16,15.4A3.837,3.837,0,0,1,5.5,11.434c.389-.189.784-.369,1.178-.55.742-.34,1.508-.691,2.235-1.095a3.972,3.972,0,0,0,1.406-1.326c.472-.758.877-1.561,1.269-2.338.131-.261.262-.521.4-.78a4.037,4.037,0,0,1,3.872-2.358q.153,0,.31.008l.6.028c.95.044,1.933.09,2.888.185q.212.021.414.021a3.522,3.522,0,0,0,2-.617c.958-.636,1.915-1.228,2.976-1.88a4.207,4.207,0,0,1,4.739,0c.379.233.753.474,1.126.716.69.447,1.4.908,2.146,1.307a4.206,4.206,0,0,0,1.923.436c.755,0,1.507-.053,2.233-.1.548-.038,1.115-.076,1.67-.093l.173,0a3.961,3.961,0,0,1,3.692,2.172c.233.423.458.864.674,1.29.339.666.689,1.354,1.09,2.007A3.987,3.987,0,0,0,45.92,9.79c.716.4,1.47.743,2.2,1.078.406.186.812.372,1.212.567a3.786,3.786,0,0,1,2.338,3.972c-.02.3-.043.6-.067.9-.068.87-.137,1.77-.125,2.662a3.762,3.762,0,0,0,.538,1.807c.46.773,1,1.514,1.517,2.23q.211.29.42.581a3.782,3.782,0,0,1-.013,4.842c-.263.366-.518.737-.773,1.107-.351.51-.714,1.038-1.091,1.54a3.01,3.01,0,0,0-.625,2.148c.066.762.111,1.541.155,2.294.021.366.042.732.066,1.1a3.768,3.768,0,0,1-2.3,3.928c-.962.477-2.1,1.032-3.262,1.535a3.44,3.44,0,0,0-1.754,1.675c-.535,1.033-1.1,2.056-1.691,3.139-.253.462-.513.933-.778,1.422l-.079.145.663,1.356c.5,1.03,1.045,2.139,1.59,3.247q1.9,3.86,3.8,7.718l1.69,3.432c.035.072.069.145.107.216a.767.767,0,0,1-.106,1.051.784.784,0,0,1-.555.241,1.4,1.4,0,0,1-.613-.175q-2.879-1.447-5.767-2.88l-4.508-2.243s-.915,3.965-1.16,5.035q-.179.779-.351,1.557c-.286,1.282-.582,2.607-.92,3.9a2.663,2.663,0,0,1-.476.82c-.067.091-.134.182-.2.274Zm.232-23.24a5.315,5.315,0,0,0-3.742,2.176l-.521,1.051c-.591,1.19-1.2,2.42-1.771,3.645a1.573,1.573,0,0,0,0,1.24c1.412,2.925,2.874,5.887,4.288,8.752l.718,1.456a4.231,4.231,0,0,0,.23.392c.046.073.1.155.156.251l.452.746s1.626-7.039,2.047-8.867c.238-1.035.54-1.177.83-1.177a2.51,2.51,0,0,1,1.024.326c1.846.917,3.692,1.837,5.615,2.8l3.1,1.544L45.82,60.431C43.985,56.7,42.216,53.1,40.433,49.5a1.027,1.027,0,0,0-.784-.5c-1.237-.073-2.5-.13-3.711-.185l-1.143-.052-.084,0M17.428,58.435c.174,0,.58,0,.819,1.045q.653,2.858,1.311,5.717l.58,2.524.671.072,7.825-15.913L28,51.957a4.347,4.347,0,0,1-.533.033,5.614,5.614,0,0,1-3.191-1.2c-.388-.261-.791-.509-1.181-.748-.371-.229-.754-.465-1.119-.708a3.341,3.341,0,0,0-1.915-.565c-.118,0-.237,0-.359.014-1.658.129-3,.2-4.228.208a1.17,1.17,0,0,0-1.2.716q-2,4.1-4.018,8.2L8.449,61.579a2.9,2.9,0,0,0-.146.385c-.023.07-.048.148-.08.237l-.279.786,3.022-1.509c1.87-.933,3.7-1.846,5.527-2.757a2.255,2.255,0,0,1,.935-.287m2.787-11.279a4.5,4.5,0,0,1,2.5.719c.388.249.782.491,1.175.733.619.381,1.259.774,1.864,1.187a2.9,2.9,0,0,0,1.66.565,3.014,3.014,0,0,0,1.7-.583c.5-.337,1.024-.662,1.531-.977.444-.274.887-.549,1.321-.836a4.731,4.731,0,0,1,2.681-.806c.178,0,.363.009.549.027.736.07,1.483.109,2.206.148.437.023.874.046,1.311.076q.129.008.251.009a2.5,2.5,0,0,0,2.368-1.467c.407-.8.824-1.588,1.24-2.38l.482-.917a3.977,3.977,0,0,1,1.917-1.816c.488-.227.974-.459,1.459-.691.67-.32,1.34-.64,2.016-.948a2.391,2.391,0,0,0,1.533-2.554c-.064-.8-.11-1.608-.154-2.393-.025-.451-.051-.9-.08-1.353a3.648,3.648,0,0,1,.715-2.406q.361-.512.716-1.027c.439-.633.893-1.287,1.354-1.918a2.383,2.383,0,0,0,.015-3.068c-.445-.608-.883-1.24-1.306-1.85-.253-.365-.506-.731-.763-1.094a3.706,3.706,0,0,1-.731-2.471c.028-.406.047-.814.067-1.221l.013-.264.035-.287c.012-.206.023-.411.034-.617.023-.453.047-.906.085-1.358a2.34,2.34,0,0,0-1.507-2.5c-.657-.3-1.309-.611-1.96-.922-.5-.241-1.008-.482-1.515-.717a4.071,4.071,0,0,1-1.966-1.866c-.182-.349-.367-.7-.552-1.044-.369-.693-.751-1.409-1.1-2.123a2.576,2.576,0,0,0-2.468-1.562q-.158,0-.324.013c-.558.045-1.117.075-1.676.1-.6.033-1.221.066-1.833.117q-.243.02-.479.02a4.472,4.472,0,0,1-2.487-.717c-.444-.285-.893-.565-1.341-.845-.591-.369-1.183-.739-1.765-1.12a2.92,2.92,0,0,0-1.6-.525,2.847,2.847,0,0,0-1.569.514c-.665.438-1.355.867-2.022,1.282q-.574.357-1.146.718a4.439,4.439,0,0,1-2.447.694q-.225,0-.455-.018c-.711-.057-1.433-.1-2.131-.135-.51-.028-1.02-.056-1.53-.091q-.13-.009-.254-.009A2.491,2.491,0,0,0,13.5,6.054c-.336.66-.681,1.316-1.026,1.972q-.332.631-.661,1.263A4.135,4.135,0,0,1,9.791,11.2c-.524.242-1.045.49-1.565.739-.613.293-1.225.585-1.844.866A2.387,2.387,0,0,0,4.85,15.359c.06.73.1,1.477.143,2.2.028.492.056.985.089,1.477a3.8,3.8,0,0,1-.754,2.536c-.292.412-.58.827-.868,1.242-.4.571-.793,1.142-1.2,1.706a2.305,2.305,0,0,0-.014,2.94c.261.361.511.728.762,1.1.353.518.719,1.054,1.11,1.565a4.426,4.426,0,0,1,.956,3.237c-.062.652-.1,1.313-.134,1.953-.023.413-.046.826-.075,1.238a2.357,2.357,0,0,0,1.62,2.7l.123.059c1.033.493,2.1,1,3.161,1.486a4.172,4.172,0,0,1,2.06,1.959c.245.478.5.952.747,1.426.307.58.614,1.16.908,1.745a2.521,2.521,0,0,0,2.4,1.5c.09,0,.183,0,.278-.01.512-.037,1.026-.066,1.539-.1.67-.039,1.363-.079,2.046-.135q.237-.019.468-.02" transform="translate(0)" fill="#fff" stroke="#fff" stroke-width="1"/>
    <path id="Path_125" data-name="Path 125" d="M46.218,61.735a17.719,17.719,0,0,1-12.245-4.808,15.827,15.827,0,0,1-5.054-11.588c.014-9,7.8-16.329,17.35-16.329a17.55,17.55,0,0,1,12.169,4.828,15.838,15.838,0,0,1,5.038,11.606c-.043,8.982-7.777,16.29-17.24,16.29Zm-.072-31.117c-8.539,0-15.507,6.6-15.533,14.721a14.254,14.254,0,0,0,4.542,10.437,15.929,15.929,0,0,0,11.006,4.353H46.2c8.576,0,15.567-6.6,15.584-14.719a14.263,14.263,0,0,0-4.531-10.437,16.011,16.011,0,0,0-11.09-4.355Z" transform="translate(-18.784 -19.371)" fill="#fff" stroke="#fff" stroke-width="1"/>
    <path id="Path_126" data-name="Path 126" d="M62.236,66.079a5.466,5.466,0,0,1-.59-.25c-1.864-.963-3.791-1.96-5.688-2.976a1.41,1.41,0,0,0-.679-.191,1.425,1.425,0,0,0-.685.194c-1.1.588-2.21,1.165-3.318,1.742q-1.153.6-2.3,1.2a2.031,2.031,0,0,1-.865.311.757.757,0,0,1-.431-.142c-.407-.27-.415-.593-.278-1.263q.214-1.044.421-2.089c.255-1.277.518-2.6.8-3.889a1.135,1.135,0,0,0-.426-1.226q-1.294-1.133-2.575-2.28-1.088-.968-2.18-1.934c-.5-.438-.625-.708-.5-1.071.131-.386.414-.542,1.12-.619,1.163-.127,2.324-.265,3.485-.4.941-.112,1.882-.224,2.823-.33a1.433,1.433,0,0,0,1.271-.875c.538-1.132,1.107-2.274,1.658-3.379q.548-1.1,1.09-2.2c.25-.51.5-.709.894-.709s.646.2.895.709q.536,1.095,1.082,2.184c.554,1.11,1.126,2.258,1.666,3.4a1.431,1.431,0,0,0,1.27.875c1.008.112,2.015.232,3.022.351,1.12.133,2.239.265,3.36.389.635.07.918.236,1.047.612.121.354,0,.631-.445,1.024q-1.054.929-2.1,1.864-1.351,1.2-2.707,2.4a1.139,1.139,0,0,0-.427,1.226c.458,2.13.878,4.293,1.27,6.326a.878.878,0,0,1-.16.751.99.99,0,0,1-.7.311l-.105-.04m-6.969-5.221a1.9,1.9,0,0,1,.932.283c.976.545,1.966,1.053,3.015,1.591.444.227.9.46,1.36.7l.65.339-.137-.692c-.091-.461-.172-.909-.251-1.347a29.065,29.065,0,0,0-.609-2.842A2.032,2.032,0,0,1,61.1,56.4c.781-.6,1.494-1.252,2.248-1.946.333-.307.673-.619,1.028-.934l.544-.484-.74-.088L62.929,52.8c-.851-.1-1.655-.191-2.454-.3-.408-.054-.746-.092-1.031-.124-1.28-.143-1.28-.143-1.871-1.356-.1-.2-.207-.427-.339-.687-.363-.723-.723-1.446-1.1-2.214l-.854-1.715-.317.636c-.226.454-.45.891-.669,1.319-.5.982-.977,1.909-1.393,2.868a1.772,1.772,0,0,1-1.729,1.158c-1.087.084-2.157.224-3.291.373-.487.063-.984.128-1.495.19l-.737.089.542.483c.4.352.779.7,1.154,1.033.9.806,1.745,1.567,2.62,2.309a1.246,1.246,0,0,1,.481,1.381c-.131.541-.239,1.092-.344,1.625l-.052.262c-.129.651-.253,1.3-.388,2l-.313,1.63.647-.338c.477-.249.94-.488,1.392-.721,1.049-.54,2.04-1.051,3.013-1.6a1.774,1.774,0,0,1,.869-.258" transform="translate(-27.861 -29.182)" fill="#fff" stroke="#fff" stroke-width="1"/>
  </g>
</svg>
