<svg xmlns="http://www.w3.org/2000/svg" xmlns:xlink="http://www.w3.org/1999/xlink" width="64.155" height="53.196" viewBox="0 0 64.155 53.196">
  <defs>
    <style>
      .cls-1 {
        fill: none;
      }

      .cls-2 {
        clip-path: url(#clip-path);
      }

      .cls-3 {
        fill: #fff;
      }
    </style>
    <clipPath id="clip-path">
      <rect id="Rectangle_228" data-name="Rectangle 228" class="cls-1" width="64.155" height="53.196"/>
    </clipPath>
  </defs>
  <g id="Group_2599" data-name="Group 2599" transform="translate(0 0)">
    <g id="Group_2598" data-name="Group 2598" class="cls-2" transform="translate(0 -0.001)">
      <path id="Path_29780" data-name="Path 29780" class="cls-3" d="M38.562,53.187a2.074,2.074,0,0,1-.993-.3c-1.572-.851-3.137-1.665-4.791-2.524l-1.231-.64a1.186,1.186,0,0,1,.6-2.211,1.178,1.178,0,0,1,.48.1l4.8,2.5c0-.005,0-5.965,0-5.965,0-5.383,0-10.957.009-16.435a.514.514,0,0,0-.3-.578c-5.556-2.891-11.17-5.834-16.6-8.682l-5.06-2.65v4.533c0,5.841,0,11.886-.015,17.828a.615.615,0,0,0,.382.674c3.266,1.685,6.545,3.4,9.715,5.068l3.116,1.634a1.186,1.186,0,0,1-.556,2.234,1.161,1.161,0,0,1-.513-.12c-.082-.039-.165-.08-.247-.123L25.3,46.455c-1.373-.723-2.788-1.467-4.192-2.183a2.393,2.393,0,0,0-1.049-.253c-2.782-.014-5.5-.016-7.785-.016H8.018a1.172,1.172,0,1,1,0-2.344H16.16c-.565-.3-1.175-.623-1.784-.9a2.026,2.026,0,0,1-1.305-2.127c.032-3.142.027-6.368.024-9.487V25.336H5.833a1.209,1.209,0,0,1-1.252-1.083,1.19,1.19,0,0,1,1.083-1.282l.1,0,.1,0h7.175V16.932H1.192a1.191,1.191,0,1,1,0-2.383H13.036a2.4,2.4,0,0,1,1.7-2.286c1.55-.75,3.073-1.558,4.76-2.459.335-.18.671-.358,1.007-.537H12.146a1.2,1.2,0,0,1-.066-2.393h1.806c3.132,0,6.835,0,10.561-.016a2.614,2.614,0,0,0,1.172-.287C29.456,4.593,33.521,2.466,37.7.25a1.9,1.9,0,0,1,.9-.25,2,2,0,0,1,.953.263c7.693,4.044,15.624,8.2,23.562,12.336a1.893,1.893,0,0,1,1.025,1.7c-.017,8.147-.017,16.417,0,24.579a1.731,1.731,0,0,1-1.032,1.74c-8.628,4.5-16.319,8.527-23.489,12.3a2.11,2.11,0,0,1-.994.275H38.6Zm6.769-28.746c-1.756.924-3.419,1.8-5.126,2.666a.6.6,0,0,0-.419.642c.018,5.652.018,11.36.017,16.881,0,0,0,5.456,0,5.493l7.522-3.934c4.667-2.441,9.435-4.937,14.142-7.383a.459.459,0,0,0,.3-.5c-.016-6.126-.016-12.313-.015-18.3V15.838l-2.431,1.274c-.971.508-1.961,1.028-2.944,1.521a.543.543,0,0,0-.364.6c.014,1.485.014,2.946.014,4.366s0,2.861.013,4.292a1.649,1.649,0,0,1-1.066,1.663c-1.311.629-2.66,1.287-3.964,1.927l-2.25,1.1a2.212,2.212,0,0,1-.928.262h0c-.436,0-1.141-.207-1.143-1.582V23.725Zm7.856-4.119c-1.4.73-2.725,1.423-4.057,2.139a.418.418,0,0,0-.039.124c-.014,2.065-.013,4.15-.012,6.352v.834l.753-.371c1.218-.6,2.369-1.167,3.548-1.714a.41.41,0,0,0,.291-.462c-.02-1.719-.018-3.418-.016-5.06V20.078ZM22.417,16.774c5.231,2.743,10.6,5.561,15.9,8.327a.928.928,0,0,0,.38.106c1.921-.981,3.816-1.977,5.822-3.03l.76-.4-1.2-.6C37.221,17.745,30.131,14.2,23.149,10.723a.29.29,0,0,0-.089-.015h-.026a.606.606,0,0,0-.256.057c-1.788.912-3.6,1.864-5.365,2.788l-.568.3Zm8.533-4.83c4.838,2.408,10.32,5.138,15.534,7.81a2.982,2.982,0,0,0,1.345.323,3.062,3.062,0,0,0,1.632-.476c.754-.457,1.536-.88,2.328-1.258l.352-.174L32.982,8.507A1.18,1.18,0,0,1,34.03,6.392l4.682,2.352c4.94,2.486,10.014,5.038,14.987,7.584a2.366,2.366,0,0,0,1.084.321,1.881,1.881,0,0,0,.95-.3c1.229-.725,2.461-1.358,3.766-2.028l.889-.457-2.2-1.157C51.821,9.367,45.261,5.927,38.8,2.563a.3.3,0,0,0-.1-.016V2.272l-.012.274a.882.882,0,0,0-.375.083c-2.24,1.153-4.511,2.343-6.724,3.5L28.794,7.6c-.829.433-1.658.868-2.5,1.315l-.7.364q2.673,1.337,5.352,2.669" transform="translate(0 0)"/>
    </g>
  </g>
</svg>
