<svg id="Group_2472" data-name="Group 2472" xmlns="http://www.w3.org/2000/svg" xmlns:xlink="http://www.w3.org/1999/xlink" width="50.908" height="68.167" viewBox="0 0 50.908 68.167">
  <defs>
    <style>
      .cls-1 {
        fill: #fff;
      }

      .cls-2 {
        clip-path: url(#clip-path);
      }
    </style>
    <clipPath id="clip-path">
      <rect id="Rectangle_147" data-name="Rectangle 147" class="cls-1" width="50.908" height="68.167"/>
    </clipPath>
  </defs>
  <g id="Group_2471" data-name="Group 2471" class="cls-2">
    <path id="Path_29674" data-name="Path 29674" class="cls-1" d="M25.483,57.265l-3.915,8.46c-.21.453-.411.91-.632,1.359a1.533,1.533,0,0,1-2.786.334q-2.414-2.8-4.761-5.661a1.776,1.776,0,0,0-1.561-.747c-2.792.044-5.585.025-8.378.015-1.719-.007-2.313-.894-1.59-2.389Q5.369,51.386,8.9,44.144c.159-.328.316-.656.455-.946A21.833,21.833,0,0,1,6.98,41.583a4.86,4.86,0,0,1-1.736-3.7,4.068,4.068,0,0,0-2.3-3.9A5.473,5.473,0,0,1,.8,26.266,3.907,3.907,0,0,0,.78,21.984,5.5,5.5,0,0,1,3.072,14.24a3.839,3.839,0,0,0,2.15-3.471c.116-3.435,2.564-5.738,6.184-5.823A3.976,3.976,0,0,0,14.98,2.953,6.2,6.2,0,0,1,23.318.791,4.284,4.284,0,0,0,27.648.78a6.207,6.207,0,0,1,8.324,2.211,3.936,3.936,0,0,0,3.593,1.961c3.6.082,6.091,2.485,6.129,5.858a3.534,3.534,0,0,0,1.923,3.276c3.334,1.939,4.165,4.988,2.318,8.29a3.345,3.345,0,0,0,.024,3.573c1.846,3.239.967,6.317-2.372,8.277a3.47,3.47,0,0,0-1.878,2.8c-.355,3.554-.839,4.275-4.1,6.086q1.565,3.215,3.138,6.449,2.189,4.5,4.374,9c.785,1.627.211,2.462-1.683,2.466-2.758.006-5.516.025-8.273-.015a1.687,1.687,0,0,0-1.486.689c-1.522,1.853-3.087,3.673-4.626,5.513-1.165,1.393-2.364,1.24-3.128-.418q-1.988-4.313-3.968-8.629c-.12-.26-.267-.508-.475-.9m22.435-37.7a3.168,3.168,0,0,0-1.8-3.032,6.023,6.023,0,0,1-3.4-5.632A3.068,3.068,0,0,0,39.467,7.74a13.345,13.345,0,0,1-1.56-.1,6.492,6.492,0,0,1-4.526-3.216,3.1,3.1,0,0,0-4.31-1.163,6.943,6.943,0,0,1-7.12.073,3.109,3.109,0,0,0-4.519,1.232,6.4,6.4,0,0,1-5.846,3.183,3.085,3.085,0,0,0-3.411,3.222,5.982,5.982,0,0,1-3.258,5.506c-2.043,1.193-2.464,2.549-1.32,4.51a5.868,5.868,0,0,1-.047,6.4c-1.038,1.756-.63,3.282,1.19,4.322a6.143,6.143,0,0,1,3.443,5.713,3.031,3.031,0,0,0,3.313,3.1,6.56,6.56,0,0,1,5.941,3.221,3.183,3.183,0,0,0,4.638,1.175,6.8,6.8,0,0,1,6.752-.012c1.922,1.017,3.534.623,4.642-1.145a6.52,6.52,0,0,1,5.93-3.235,3.014,3.014,0,0,0,3.327-3.167,6.023,6.023,0,0,1,3.323-5.575c1.972-1.124,2.381-2.629,1.249-4.541a5.757,5.757,0,0,1,0-6.225,10.529,10.529,0,0,0,.619-1.452M12.671,43.175,5.356,58.209c2.658,0,5.159.026,7.659-.014a2.276,2.276,0,0,1,1.964.905c.87,1.075,1.772,2.128,2.668,3.185.464.548.943,1.084,1.47,1.688l7.737-16.785a3.342,3.342,0,0,0-3.145.131c-3.639,1.821-6.713,1-8.99-2.28a13.177,13.177,0,0,0-2.047-1.864M45.655,58.209,38.494,43.485a3.323,3.323,0,0,0-2.479,1.766,6.337,6.337,0,0,1-5.728,3.035,1.228,1.228,0,0,0-.9.538c-.681,1.337-1.324,2.7-1.878,4.084a2.086,2.086,0,0,0-.006,1.468c.879,2.049,1.851,4.062,2.788,6.088.527,1.138,1.052,2.278,1.629,3.526,1.346-1.593,2.65-3.056,3.851-4.591a2.9,2.9,0,0,1,2.646-1.215c2.359.085,4.725.025,7.239.025" transform="translate(0 -0.001)"/>
    <path id="Path_29675" data-name="Path 29675" class="cls-1" d="M86.122,77.1,73.892,95.235a1.949,1.949,0,0,1-2.849.365l-9.773-8.338a1.359,1.359,0,0,1-.116-1.985l.02-.021a1.544,1.544,0,0,1,2.1-.108l8.268,7.06a.619.619,0,0,0,.905-.115L83.6,75.574a1.532,1.532,0,0,1,2.035-.435l.025.015a1.364,1.364,0,0,1,.464,1.95" transform="translate(-48.047 -60.044)"/>
  </g>
</svg>
