<svg xmlns="http://www.w3.org/2000/svg" width="43.774" height="71.546" viewBox="0 0 43.774 71.546">
  <defs>
    <style>
      .cls-1 {
        fill: #fff;
        stroke: #fff;
      }
    </style>
  </defs>
  <g id="Group_80" data-name="Group 80" transform="translate(0.498 0.5)">
    <path id="Path_127" data-name="Path 127" class="cls-1" d="M263.8,72.963q-5.565,0-11.129-.006c-.72,0-.945-.141-.949-1.018,0-.686,0-1.372,0-2.058,0-1.328.006-2.7-.026-4.058a2.694,2.694,0,0,0-.812-1.8,20.375,20.375,0,0,1-6.806-15.168c-.032-2.114-.023-4.269-.014-6.353l.005-1.254c0-1.344,0-3.374,0-5.71.007-7.274.015-17.235-.013-19.065a4.778,4.778,0,0,1,1.276-3.571,5.128,5.128,0,0,1,3.524-1.439,5.982,5.982,0,0,1,1.93.264,10.051,10.051,0,0,1,1.586.607c.008-.215.018-.429.024-.644a2.53,2.53,0,0,1,.261-.99,5.868,5.868,0,0,1,1.686-2.35,4.134,4.134,0,0,1,2.531-.713,12.241,12.241,0,0,1,1.91.173l.962.153L259.925,7a5.534,5.534,0,0,1,2.456-3.95,4.123,4.123,0,0,1,2.263-.633c.148,0,.3.007.455.02,2.078.174,3.659,1.89,4.229,4.588l.185.876.891-.09c.291-.03.583-.073.875-.116a9.134,9.134,0,0,1,1.307-.134c.088,0,.176,0,.264.01a4.539,4.539,0,0,1,4.274,4.64c.022,3.163.017,6.381.013,9.493q0,2.045,0,4.089l-.163,5.193a7.72,7.72,0,0,1,1.139-2.571,4.656,4.656,0,0,1,3.8-1.609,4.858,4.858,0,0,1,3.55,1.5,5.063,5.063,0,0,1,1.364,3.766c-.066,1.446-.208,2.927-.344,4.359-.056.586-.112,1.173-.163,1.759q-.147,1.668-.29,3.338c-.256,2.97-.522,6.041-.811,9.056a19.935,19.935,0,0,1-5.433,11.772c-.481.531-1.007,1.02-1.564,1.539-.444.413-.9.841-1.34,1.294a2.788,2.788,0,0,0-.779,1.749c-.034,1.073-.03,2.156-.027,3.2,0,.623,0,1.247,0,1.87-.007.759-.19.945-.933.946q-5.669.007-11.34.007m-18.24-28.992c0,1.535,0,3.071.007,4.606a18.666,18.666,0,0,0,6.974,14.841,1.63,1.63,0,0,1,.682,1.46c-.033,1.3-.026,2.622-.019,3.9q0,.814.005,1.638v1h21.376v-1c0-.433.005-.863.01-1.292.011-.99.023-2.013-.029-3.027a1.821,1.821,0,0,1,.846-1.691c3.869-3.082,6.305-6.4,7.448-10.156a31.688,31.688,0,0,0,1.055-6.081c.4-3.944.735-7.957,1.065-11.838q.157-1.85.315-3.7a5.567,5.567,0,0,0-.026-1.476,3.5,3.5,0,0,0-3.181-2.869c-.123-.011-.245-.017-.365-.017a3.451,3.451,0,0,0-3.347,2.315c-.292.819-.536,1.655-.772,2.463-.1.33-.193.66-.292.989-.356,1.175-.691,1.175-.852,1.175a1.128,1.128,0,0,1-.157-.012c-.279-.039-.662-.093-.663-1.375V13.06c0-.167,0-.334,0-.5-.027-2.1-1.285-3.513-3.13-3.524a3.212,3.212,0,0,0-3.179,3.511q-.014,6.2-.008,12.4v5.805a6.536,6.536,0,0,1-.025.757.705.705,0,0,1-.627.662.884.884,0,0,1-.088,0,.674.674,0,0,1-.686-.528,4.416,4.416,0,0,1-.091-1.044q0-3.7,0-7.4c0-4.941,0-10.05-.018-15.076a6.656,6.656,0,0,0-.45-2.382,2.838,2.838,0,0,0-2.679-1.823h-.047a2.827,2.827,0,0,0-2.666,1.787,6.572,6.572,0,0,0-.516,2.475c-.024,5.83-.022,11.756-.02,17.487l0,5.032c0,.154,0,.307,0,.461-.015.667-.264,1.007-.739,1.01-.6,0-.739-.536-.75-.987,0-.152,0-.3,0-.455l0-17.936c0-.232,0-.471-.011-.721a2.991,2.991,0,1,0-5.981.03c-.012.216-.011.432-.01.649l0,18.083c0,.149,0,.3,0,.446-.023.591-.271.89-.738.89s-.721-.3-.747-.868c-.007-.15-.005-.3,0-.448v-4.18q0-5.112,0-10.223a3.214,3.214,0,0,0-3.35-3.5h0a3.207,3.207,0,0,0-3.509,3.524c0,1.332,0,7.059,0,12.845,0,5.878,0,11.818,0,13.273Z" transform="translate(-244.056 -2.417)"/>
    <path id="Path_128" data-name="Path 128" class="cls-1" d="M286.325,132.447a1.191,1.191,0,0,1-.705-.4l-.144-.143c-2.18-2.162-4.434-4.4-6.62-6.624a5.7,5.7,0,0,1-.679-7.392,5.591,5.591,0,0,1,4.6-2.376,6.392,6.392,0,0,1,2.647.589,2.022,2.022,0,0,0,.838.167,2.63,2.63,0,0,0,1.077-.229,5.881,5.881,0,0,1,2.465-.548,5.7,5.7,0,0,1,5.694,5.7,5.422,5.422,0,0,1-1.579,3.945c-1.995,2.036-4.136,4.181-6.942,6.954a1.079,1.079,0,0,1-.646.364M282.811,117a4.212,4.212,0,0,0-3.03,1.29,4.031,4.031,0,0,0-.166,5.57c1.37,1.439,2.77,2.795,4.251,4.23.617.6,1.24,1.2,1.87,1.819l.727.714.7-.743q.235-.25.463-.5c.33-.356.642-.692.965-1.019.492-.5.988-.99,1.485-1.483.932-.924,1.9-1.881,2.815-2.86a4.129,4.129,0,0,0-.016-5.7,4.216,4.216,0,0,0-5.508-.537,5.858,5.858,0,0,1-1.066.678,6.611,6.611,0,0,1-1.012-.66,4.207,4.207,0,0,0-2.476-.8" transform="translate(-266.132 -77.917)"/>
  </g>
</svg>
