<svg xmlns="http://www.w3.org/2000/svg" version="1.1" xmlns:xlink="http://www.w3.org/1999/xlink" xmlns:svgjs="http://svgjs.dev/svgjs" width="540" height="560" preserveAspectRatio="none" viewBox="0 0 540 560"><g mask="url(&quot;#SvgjsMask1044&quot;)" fill="none"><path d="M328 441L327 83" stroke-width="10" stroke="url(&quot;#SvgjsLinearGradient1045&quot;)" stroke-linecap="round" class="Up"></path><path d="M419 63L418 -193" stroke-width="10" stroke="url(&quot;#SvgjsLinearGradient1045&quot;)" stroke-linecap="round" class="Up"></path><path d="M109 428L108 66" stroke-width="6" stroke="url(&quot;#SvgjsLinearGradient1045&quot;)" stroke-linecap="round" class="Up"></path><path d="M409 390L408 620" stroke-width="10" stroke="url(&quot;#SvgjsLinearGradient1045&quot;)" stroke-linecap="round" class="Up"></path><path d="M156 350L155 76" stroke-width="10" stroke="url(&quot;#SvgjsLinearGradient1045&quot;)" stroke-linecap="round" class="Up"></path><path d="M338 167L337 3" stroke-width="6" stroke="url(&quot;#SvgjsLinearGradient1045&quot;)" stroke-linecap="round" class="Up"></path><path d="M240 501L239 201" stroke-width="8" stroke="url(&quot;#SvgjsLinearGradient1046&quot;)" stroke-linecap="round" class="Down"></path><path d="M513 219L512 535" stroke-width="10" stroke="url(&quot;#SvgjsLinearGradient1046&quot;)" stroke-linecap="round" class="Down"></path><path d="M263 129L262 -229" stroke-width="6" stroke="url(&quot;#SvgjsLinearGradient1046&quot;)" stroke-linecap="round" class="Down"></path><path d="M332 536L331 178" stroke-width="8" stroke="url(&quot;#SvgjsLinearGradient1046&quot;)" stroke-linecap="round" class="Down"></path><path d="M99 53L98 -352" stroke-width="8" stroke="url(&quot;#SvgjsLinearGradient1045&quot;)" stroke-linecap="round" class="Up"></path><path d="M32 202L31 544" stroke-width="8" stroke="url(&quot;#SvgjsLinearGradient1046&quot;)" stroke-linecap="round" class="Down"></path><path d="M383 133L382 -131" stroke-width="6" stroke="url(&quot;#SvgjsLinearGradient1045&quot;)" stroke-linecap="round" class="Up"></path><path d="M107 457L106 196" stroke-width="10" stroke="url(&quot;#SvgjsLinearGradient1046&quot;)" stroke-linecap="round" class="Down"></path></g><defs><mask id="SvgjsMask1044"><rect width="540" height="560" fill="#ffffff"></rect></mask><linearGradient x1="0%" y1="100%" x2="0%" y2="0%" id="SvgjsLinearGradient1045"><stop stop-color="rgba(18, 221, 126, 0)" offset="0"></stop><stop stop-color="rgba(18, 221, 126, 1)" offset="1"></stop></linearGradient><linearGradient x1="0%" y1="0%" x2="0%" y2="100%" id="SvgjsLinearGradient1046"><stop stop-color="rgba(18, 221, 126, 0)" offset="0"></stop><stop stop-color="rgba(18, 221, 126, 1)" offset="1"></stop></linearGradient></defs></svg>